<?xml version="1.0" encoding="utf-8"?>
<svg version="1.1" xmlns="http://www.w3.org/2000/svg" xmlns:xlink="http://www.w3.org/1999/xlink" x="0px" y="0px"
	 viewBox="0 0 430 440" style="enable-background:new 0 0 430 440;" xml:space="preserve">
<path d="M88.2,383.2c-2.8,0-5.2,0.4-8.3,0.7c-6.9-4.7-10-13.6-19-19.4c1.4,6.1,1,10.4,4.2,14.4c1,1.4,0.3,4.7,0,7.2
	c0,0.7-1.4,1.1-2.8,1.8c-0.7-1.8-1-2.9-1.4-4c-0.3-4-1.7-6.8-5.5-8.3c-1,0-1.4-2.5-2.1-3.6c1,0,2.1,0.7,4.8,1.4
	c-2.8-5-3.8-9.3-6.9-12.2c-0.3-0.4-0.7-1.1-1-1.4c0.3,0.4,0.7,1.1,1.4,1.4c0.7,3.6,1.4,7.5,2.1,11.1c-2.4-1.1-4.5-2.5-5.2-5.7
	c-2.1-8.3-3.8-16.5-7.6-24.1c-1.7-3.2-2.4-6.5-5.5-9c-2.1-1.4-3.1-5.4-3.8-8.6c-2.1-7.5-3.5-15.1-5.2-22.6c-1-5.7-2.4-11.5,0.3-17.2
	c0.7-1.1,0-2.9,0-4.3c-0.7,0.4-1.4,0.7-2.4,1.1c-0.3-2.9-0.7-5.4-1.4-8.3c-2.8,3.2-3.1,3.2-3.1,14.4c0,5.4,0.7,11.1,1.4,16.5
	c0.3,5,1,10.1,1.7,15.8c-1.4,0.4-3.1,1.4-4.5,1.4c-1.7-0.4-2.4-2.5-2.1-4.3c2.1-9.7-1.7-19-1.7-28.7c0-1.4-1.4-2.5-1.7-4
	c-1-2.9-1.7-5.4-2.4-8.3c1.4,1.1,2.8,1.8,4.5,2.9c2.1-5.4-0.7-10.8,2.1-15.4c0-0.4-1-2.2-2.1-3.2c0-0.4-1.7-0.4-1.7,0
	c-0.7,1.1-1.7,2.5-1.7,3.6c0.3,4.3,2.1,8.6-1,12.6c-2.4-2.5-1.4-5.4-1.4-8.3c0-7.2-0.3-14-3.1-20.5c-2.1-5.4-0.7-15.4,3.1-23
	c2.1,5.7,0,10.8,0.7,15.4c0.7,4.7,2.4,9.3,3.5,13.3c2.8,1.1,4.2,0,4.5-1.8c0.3-2.5,0.7-5,0.7-7.5c0-8.6-0.3-16.9,0.7-25.5
	c1.7-12.6,1.7-25.5,5.5-38.1c3.5-11.9,9.3-21.9,15.9-32c1.4-1.8,3.5-3.2,5.2-4.7c1.7,2.9,0.3,4.3-0.7,5.4
	c-7.3,8.3-11.4,18.3-15.9,28.4c-1,2.5-1.7,5.4-2.4,8.3c0,1.1,0,2.2,0,3.2c-4.2,11.1-2.4,23.3-4.8,34.8c0,1.1,0,2.2,0,3.9
	c1.4,1.1,3.1,1.8,5.2,3.2v11.1c3.5-5.4,4.8-10.1,5.5-16.2c0.3-4.7,0.7-9.3,2.4-14c1.4-3.2,1.4-6.8-1.4-10.1
	c-2.1-2.2-1.4-4.7,1.4-6.1c0,0.7,0.3,1.1,0.7,1.4c0,0-0.3-0.7-0.7-1.4c0.7-3.2,1.4-6.5,2.4-9.3c3.8-9.7,7.3-19.8,11.4-29.1
	c2.4-5.7,5.5-10.8,8.3-16.2c0.7-1.4,1-3.2,1.7-5c1.4-0.7,2.8-1.1,3.8-1.8c0-0.4-0.7-0.7-0.7-1.4c-1,1.1-2.1,2.2-3.1,3.2
	c-1-1.1-2.1-1.8-3.5-3.2c2.8-3.2,5.2-6.1,8.3-9.7c-5.9-1.8-10.7-3.6-15.6-5c-2.1,4.3-2.4,4.7-4.8,3.2c6.9-9,15.6-16.5,20.1-28
	c-3.8-2.2-5.2,4-8.7,2.9c0-1.1,0-2.2,0.7-2.9c4.8-6.8,10.7-12.6,17.3-17.2c8.6-6.1,17.6-12.2,26.6-18.7c-4.2-1.4-6.6,2.5-10,2.9
	v-0.7c0.7-2.9,3.1-5,5.9-6.1c1.4-0.4,2.8-1.8,4.2-2.5c1.7-0.7,3.5-1.4,5.2-2.5c0-0.4,0-0.7,0-1.4c1-4.7,4.8-5.7,8.3-7.5
	c8.3-4,17-7.2,24.9-11.9c8-4.7,15.6-5.7,24.2-4.3c0.7,0,1.4,0,2.1,0c9.7-2.2,19-4,28.7-6.1c4.5-1.1,9-2.9,13.8-4
	c2.8-0.7,5.5-1.1,8-0.7c4.2,1.1,8,0,11.8-1.4c2.8-1.1,5.9-1.8,9,0c-0.7,3.6-4.2,1.8-5.5,3.2c-1.4,1.4-3.1,2.9-5.2,4.7
	c3.5,2.5,7.3,2.5,10,5.7c2.1,2.9,4.5,1.8,9.3-0.7c1-0.7,2.4-1.1,3.8-0.7c5.5,1.1,10.7,0.4,16.3,0c9-0.7,18,1.4,26.6,3.2
	c0,3.6-2.8,2.2-3.5,4c0,0,0,1.1,0.7,1.4c2.1,0.7,4.5,1.8,6.6,2.5c2.4,0.7,5.2,1.4,8,2.2c0,3.2,3.1,4.3,4.2,6.5
	c-3.8-0.7-8-1.4-12.8-2.2c1.4,1.4,1.7,2.2,2.4,2.5c8,2.5,15.9,6.1,24.2,7.5c8,1.4,14.9,5,21.5,9c7.6,4.3,14.5,9.3,21.5,14.4
	c2.4,1.4,4.5,3.2,6.2,5.4c11.1,12.9,23.9,24.1,33.6,38.4c3.1,4.7,6.2,9.3,9.7,14c-1.7,2.5-3.5,1.1-4.5,0c-3.1-3.6-5.9-7.2-8.3-11.1
	c-3.8-6.5-8.3-12.6-13.5-17.6c-1.4-1.1-2.4-2.5-3.5-3.9c-6.2-10.4-16.6-14.7-25.6-20.8c-0.7-0.7-2.1-0.7-2.8-0.7
	c-2.1,0-1.7,1.8-1,3.2c-1.4,0-2.8,0-4.2,0c0-0.4-0.7-1.1-1-1.4c0,0-0.3,0-0.7,0c0.7,0,1.4,0.7,1.7,1.1c1.4,2.9,2.8,1.1,4.2,0
	c6.6,4.7,12.8,9.7,17.3,16.9c0.3,0.7,0.7,1.4,1.4,1.8c13.5,11.5,20.4,28.4,28.4,43.8c0,0.7,0.3,1.4,0.7,2.2
	c7.3,8.6,9,19.8,10.7,30.5c0.3,2.5,1.4,5,2.1,7.2c-1,1.4-3.1,2.5-2.8,4c0,5.7,0.7,11.9,1.7,17.6c1.7,9,1,17.6,0,26.6
	c-0.7,5.4-1.7,10.8-1.7,16.5c0,11.5-4.5,21.5-6.2,32.3c-0.7,4-4.2,6.8-3.5,11.1c2.8,1.1,4.5-1.4,5.2-2.9c3.1-7.2,9.3-12.9,10-21.5
	c0-1.1,0.3-2.2,1-3.2c6.6-9.7,4.8-21.2,5.2-32c0-0.7,0-1.4,0-2.2c0,0,0-0.7,0.3-1.1c2.1-0.7,3.1,0.7,3.5,2.5
	c0.7,8.6-0.3,16.9-2.8,25.1c-1.7,6.8-4.2,13.3-6.2,20.1c-0.7,2.5-1.7,4.7-3.1,6.8c-4.2,5.7-8.7,11.1-11.4,18.3
	c-0.7,1.4-2.1,3.2-3.5,3.6c-3.8,1.1-5.2,4.7-6.6,7.9c-3.8,8.6-9,16.2-14.9,23.3c-1.4,1.4-3.5,1.8-5.2,2.9c0.7-4,6.2-6.1,4.2-11.5
	c-7.6,6.1-8.3,7.2-10.4,13.6c2.1-0.7,4.5-1.8,6.6-2.5c-1.7,2.5-2.8,5.4-4.8,6.8c-3.1,2.5-6.6,4.7-11.1,3.9c-4.2-0.7-5.5,1.4-5.9,7.2
	c0,1.1,0,2.2-0.7,2.9c-2.1,2.9-3.8,6.1-8,7.2c1-2.2,1.7-4.3,2.8-6.8c-2.8,0.7-4.8,1.1-6.9,1.8c0,0,0-0.7,0-1.1c0,0,0-0.4-0.3-0.7
	l0.7,1.4c0,0-2.1,2.9-3.5,3.6c-6.9,4.3-14.2,7.9-21.1,12.2c-3.1,1.8-6.2,4-9.7,5.7c-2.1,1.1-4.2,1.8-6.2,2.5
	c-2.1-1.4-3.8-2.2-6.6-1.1c-12.8,4.3-25.3,8.3-38.1,12.6c-2.1-2.5-4.8-2.5-7.3-1.1c-5.9,3.2-12.1,6.5-17.6,10.8
	c-2.8,2.2-5.5,4-8.6,5.4c-3.1,1.4-5.9,3.2-9,5c-0.7,0-1,1.1-1.7,1.1c-9.7,1.1-18.3,6.5-27.7,9.3c-5.5,1.8-11.1,0.7-19,1.1
	c10.7-4.3,19-7.5,27.7-10.8c2.8-1.1,5.2-1.8,5.9-5.4c0.7,0,1-0.4,1.7-0.7c0.3-0.4,0.7-1.1,0.7-1.4c0,0-1-1.1-1-0.7
	c-0.3,0-0.7,0.7-1,1.4c0,0.7,0,1.4,0,2.2c-1.7-0.7-3.8-1.1-5.2-1.8c-1.4-5.7,4.5-3.6,5.5-7.5c-1.4,0-2.8,0-3.8,0
	c-4.8,0.7-10,1.8-14.9,2.5c-0.7,0-1.4,0-2.1,0c-8.7,5-18.3,3.6-27.7,4.3c-4.8,0-9.3,0-14.2,0c-2.1,0-3.5-0.4-4.8-2.9
	c-0.7-1.4-3.5-1.8-5.2-2.2c-6.6-1.1-13.5-1.4-20.1-2.5c-4.8-0.7-9.3-1.8-12.5-6.5c0,0,2.1-3.6,3.5-5.7c1.4,0,2.8,0,4.5,0
	c5.5,1.4,11.4,2.5,16.6,4.3c3.1,1.1,5.9,0,9,0c2.8,0,5.2,1.4,8,1.4c3.1,0,5.9,0,9.3-1.4c-12.1-2.5-24.2-5-36-7.9c0,0,0-0.7,0-1.1
	c1.7,0,3.5,0,4.8-0.4c1.7,0,3.1,0,4.8-0.4c0.7-2.5-0.3-3.2-1.7-3.6c-9.7-1.4-17.3-7.2-23.9-15.1c-4.5-5.7-9-11.9-14.5-16.5
	c-1.7-1.4-2.4-3.6-3.8-5.4c-1.4-2.2-2.4-4.7-4.2-6.5c-5.2-5-9.3-10.4-10.4-18.3c0-2.5-2.8-5-5.9-5.4c-2.4,2.5-1.7,5.4-0.7,8.3
	c0.7,2.5,2.1,4.3,2.1,7.2c0,10.8,5.5,18.7,11.8,25.9c2.8,3.2,6.9,4.7,7.6,9.7c0,0-2.1,2.9-0.7,4.3c1.7,1.8,3.5,3.2,5.5,4.7
	c3.1,2.2,6.2,4.3,9.3,6.5L88.2,383.2z M33.2,283c2.1,0,3.1-1.1,1.7-3.6c-0.7-0.7-1-1.8-1.4-2.9c0.3-0.4,0.7-1.1,1-1.4
	c0,0,0-0.7,0-1.1c-0.3,0-1,0-1,0.7c0,0.7,0,1.4,0,1.8c-2.8,1.8-1.7,4,0,6.1v0.7c0,0,0-0.7,0-1.1L33.2,283z M65.7,327.9
	c0,0,0-2.2,0-3.2c0,0,0-0.7-0.7-1.1c-0.3,0.4-1,1.1-1,1.4c0,1.1,1,1.8,1.4,2.9c0.3,1.8,0.7,3.6,1,5c0,0,1,0,2.1,0.7
	c-1.4-2.2-2.4-4-3.5-5.4L65.7,327.9z M400.6,265c0,0,2.4-2.2,3.5-3.6c0,0,0-1.4-0.3-1.8c0,0-1.4,0-1.4,0.4c-0.3,1.8-0.7,3.2-1,5
	c0,0-0.3,0.4-0.7,0.7c0,0,0,0.4,0,0.7c0-0.4,0-1.1,0.3-1.4H400.6z M59.5,172c3.8-1.1,4.2-3.6,2.4-7.2c-0.7,2.5-1.4,5-2.1,7.2
	c-0.7,0-1,0-1.7,0c0,0.4,0.3,0.7,0.7,1.1c0-0.4,0.7-1.1,1-1.4L59.5,172z M71.6,136.5c2.4,0,4.5-0.4,6.9-1.1c3.1-0.7,4.8-2.9,5.9-6.5
	c-8,2.5-8.3,2.9-12.5,7.5c-0.7,0.7-1.7,1.4-2.4,2.2c0.3,0,0.7,0.7,1,0.7l1-3.2V136.5z M260.2,74.3c0.3-1.8,0.7-3.6-1.7-4.3
	c-2.1-0.4-4.2-0.7-3.8,2.9c1.7,0,3.8,0.7,5.5,1.1c3.8,4.3,8.3,4.7,14.5,4.3c-5.2-4.3-9.7-5.7-14.9-4H260.2z M191.3,96.2
	c2.8,1.1,5.9,1.4,8.6,0c1-0.7,2.4-1.4,1.4-3.6c-3.8-0.4-7.6-1.4-9.7,4c-0.7,0-1.4,0-1.7,0c0,0-0.3,0.4-0.7,0.7c0.3,0,1,0.7,1.4,0.7
	c0.3,0,0.7-1.1,1-1.8H191.3z M305.1,327.5c6.9-2.9,11.8-7.5,14.5-17.2c-2.8,2.5-4.5,4-5.5,5.4c-3.1,4-5.9,7.9-8.6,12.2
	c-0.7,0-1.4,0-2.1,0c-1,0.7-1.7,1.8-2.4,2.9l0.7,0.7c1-0.7,2.1-1.1,3.1-1.8c0.3,0,0.3-1.4,0.7-2.2H305.1z M83.7,167.7
	c3.2,1.4,6-0.1,8.3-4.7c-3.8,0-6.2,2.5-8.3,5c-3.1-2.5-4.5-2.9-5.5-0.7c-2.8,4.7-5.5,9-8,13.6c-1,2.2-1.7,4.7,1,7.5
	c4.5-5,8.7-9.7,9.7-16.9c0-2.2,1-3.2,3.1-3.6L83.7,167.7z M262.6,356.6c4.2-2.5,8.3-4.7,12.5-7.2c3.1-1.8,6.2-2.9,9-4.7
	c3.8-2.5,7.3-5.4,10-10.1c-1.7,0-2.8-0.4-3.8,0c-1,0-2.1,0.7-2.8,1.4c-3.1,4.3-8,5.4-12.1,6.8c-7.3,2.9-14.5,5.4-21.8,8.3
	c-2.1,0.7-4.8,1.8-6.9,4.3c6.9-0.7,12.3-0.1,16.3,1.8c0,0-2.8-0.4-4.2,0c-9.7,1.4-19.4,3.2-29.1,5c-2.1,0-3.8,1.1-5.9,1.4
	c-1,0.4-2.8,0.7-1.4,3.6c5.2-0.7,10.4-2.9,15.6-2.5c9.3,1.1,17-3.2,24.6-7.5V356.6z M134.2,116.7c6.6-2.2,12.1-5.4,16.3-10.8
	c4.2-1.1,6.2,4,10,1.8c3.1-1.4,7.6,0,9.7-4.3c-1.4-1.8-2.1-3.2-3.8-5.4c-4.8,2.2-9.7,2.5-14.5,0.7c-1.4-0.7-3.5,0-4.8,1.1
	c-3.8,1.4-7.3,3.6-11.1,4.7c-9,2.2-13.5,10.4-19,16.9c0.3,2.9-1.4,3.6-3.5,4.3c-1.7,0.7-3.8,1.4-5.2,2.2c-0.3,3.6,1,5,3.5,4
	c5.2-1.8,10-4.3,14.9-6.5c4.2-1.8,6.6-5,7.6-9.3V116.7z M217.9,377.8c0,0-2.8-2.2-4.2-2.2c-9.7-1.4-19.4-2.9-29.1,0
	c-6.6,2.2-12.5,5.7-19,1.1c0,0-0.7,0-1,0c-6.9,0-14.2,0-22.5,0.4c2.1,1.8,3.1,3.2,4.2,3.2c3.8,0.7,7.3,0.4,11.1,1.1
	c2.8,0.4,5.5,0.7,7.6,2.2c4.5,2.9,9,2.9,13.5,0.7c3.5-1.8,7.3-1.8,10.7-0.7s6.6,1.4,10,0c4.2-1.8,8.3-2.5,12.8-2.5
	c2.1,0,4.8,0,6.2-3.2H217.9z M324.2,311c11.1-7.9,19-16.9,24.9-27.3c-1-2.5-1.7-4.7-2.4-6.1c3.8-5.7,6.9-10.8,10-15.8
	c0.7-1.1,0-2.5,0.3-4.3c-1.7,0.7-3.1,1.1-3.5,1.8c-3.8,5.4-7.6,11.1-11.4,16.9c-1,1.8-2.8,4-2.8,5.7c0,7.2-4.8,10.8-9,15.1
	c-3.1,3.2-5.5,7.2-6.6,14.4L324.2,311z M68.5,194.6c-6.2,3.6-9.3,9-8.7,15.4c0.3,3.6,0,6.5-1.4,9.3c-2.8,7.5-3.1,15.8-1.7,23.3
	c2.4-3.6,3.5-7.5,3.5-11.5c0-5.7,1.4-10.8,4.5-15.8c1-1.8,1.7-4.3,1.4-6.1c-0.7-3.2,0-5.7,1-8.6c0.7-1.8,0.3-4.3,0.7-6.5L68.5,194.6
	z M401.3,202.9c-3.1,0-4.8,2.9-4.2,5c2.8,7.9-1.4,15.8,0,23.7c0,0.7-0.7,1.8-0.7,2.5c1,0,2.4,0.7,3.5,0.7
	C404.1,223.7,405.8,213.7,401.3,202.9z M93.4,156.2c1.7,2.9,3.5,1.4,4.8,0.7c3.1-2.2,5.9-5,9-6.5c4.2-2.2,4.2-5,3.5-8.6
	c-2.8-1.1-4.8-1.4-6.9,0.7c-2.4,2.5-4.8,5-7.3,7.5c-1.4,1.8-2.4,4.3-3.5,6.1H93.4z M349.8,237c5.9-10.8,7.6-18,6.9-26.6
	C349.8,218,350.1,227.7,349.8,237z M263.3,117.4c7.6-0.4,15.6,3.2,23.5,0.7c-0.3-1.1-0.7-2.2-1-2.5c-7.6-2.9-14.9,0.7-22.5,1.4
	V117.4z M350.8,211.2c3.8-9.3,3.8-9.3,3.1-14.4c0-1.8-0.7-3.6-3.5-3.2c-2.8,5.4-3.1,10.8,0.3,17.2V211.2z M209.3,32.7
	c7.6,1.4,14.2,4.3,21.5,0C223.5,31.2,216.9,31.2,209.3,32.7z M107.2,333.3c1.4,6.1,5.2,9,11.1,9
	C116.6,335.8,110.7,336.1,107.2,333.3z M80.6,325.7c0-11.5,0-11.5-6.2-13.3C77.1,316.7,77.5,321.4,80.6,325.7z M182.3,97.7
	c-2.4-2.5-4.2-1.4-5.9-1.1c-2.1,0.4-3.8,2.2-2.8,2.9c1,0.7,2.4,1.4,3.5,1.1C178.8,100.2,180.2,98.7,182.3,97.7z M400.3,274.4
	c-5.2,2.2-5.9,4.7-5.2,7.9c0,0.4,1,0.7,2.1,1.4C398.2,281.2,398.9,278.7,400.3,274.4z M158.1,32.3c-3.5,0-6.6,0-9.3,3.2
	C152.5,36.2,155.3,35.2,158.1,32.3z M191.6,33c-2.8-1.1-5.5-0.7-9.3,0.7C186.5,37,188.9,35.5,191.6,33z M355.3,180.6
	c0,0-2.1,0.7-2.4,1.1c-0.7,0.7-1,1.1-1.7,2.2c0,0,1,1.4,1.4,1.4c0.7,0,1.7-0.7,2.4-1.4C355.3,183.5,355,182.4,355.3,180.6z
	 M304.1,317.5c3-0.7,4.7-2.6,5.2-5.7C307.2,314.2,305.5,315.7,304.1,317.5z M33.5,314.6c0,0,1.4-0.4,2.1-0.7c0-1.4-0.3-3.2-0.7-4.7
	c0-0.4-1-1.1-1.4-0.7c-0.3,0-1.4,1.1-1,1.4c0,1.4,0.7,3.2,1.4,4.7H33.5z M27.3,255.3c0,0,0.7,0,0.7-0.4c0-1.8,0-3.2,0-5h-0.7
	c0,1.8-0.3,3.2-0.7,5C26.6,255,26.9,255,27.3,255.3z M147,291.6c0,0-1.4,0.4-1.4,0.7c0,0.7,0,1.4,0,1.8c1,0.7,2.1,1.4,3.1,2.2
	c0,0,0.7-0.7,0.3-0.7C148.4,294.1,147.7,292.7,147,291.6z M398.9,303.5c0,0,0.3-2.5,0.7-3.6c-0.7,0-1.4,0-1.4,0
	c-0.3,0.7-0.7,1.8-1,2.5c0,0,1,0.4,2.1,1.1H398.9z M56.4,276.2c0,0-1.4-1.1-1.7-1.8c0,0-0.7,0.4-0.7,0.7c0,0.7,0.7,1.4,1,2.5
	C55.3,277.2,55.7,276.9,56.4,276.2z M217.2,84.4c0,0,1-1.8,1.7-2.5c-0.7,0-1.4-0.7-1.7-0.7c-0.3,0-1,0.7-1,1.4
	c0,0.4,0.7,1.1,1.4,1.8H217.2z M287.8,42.7v-1.4c0,0-2.4,0-3.8,0c0,0.4,0,0.7,0,1.1h3.8V42.7z M399.9,194.6c0,0-1.4-1.1-2.1-1.4
	c0,0.7-1,1.4-0.7,1.8c0,0.7,1,1.4,1.7,1.8C398.9,196.1,399.6,195.7,399.9,194.6z M58.8,179.2v-0.7c-0.3,0-1,0-1.4,0v0.7
	C57.7,179.2,58.4,179.2,58.8,179.2z M28.3,261.8c0,0,0.3-0.7,0-1.1c0,0-0.3,0-0.7-0.4c0,0.4,0,1.1-0.3,1.4
	C27.3,261.8,28,261.8,28.3,261.8z M36.3,268.3c0,0-0.7-1.1-0.7-1.8c-0.3,0-1.4,0.7-1.4,0.7c0,0.7,0.7,1.4,1,2.2c0-0.4,0.7-1.1,1-1.4
	V268.3z M72.6,277.6l0.7,0.4c0,0,0.3-0.4,0.7-0.7c0,0-0.7-0.4-1-0.7C73,276.5,73,277.2,72.6,277.6z M299.6,91.9c0,0-1-1.1-1.7-1.4
	c-0.7,0-1,0-1.7,0c0,0.4,0,1.4,0.3,1.4c0.7,0,1.7,0,2.8,0H299.6z M134.9,354.5c0,0-1.4,0-1.7-0.4c0,0.4,0,1.1,0,1.4c0.7,0,1,0,1.7,0
	v-0.7V354.5z M385.8,162c0,0,0-1.1,0-1.8c0,0-0.3,0-0.7-0.4c0,0.4-0.3,1.1,0,1.4c0,0.4,1,0.4,1.4,0.7H385.8z M83,160.9h-0.7
	c0,0.4,0,0.7,0.3,1.4c0,0,0.7,0,0.7-0.7v-0.7H83z M230.1,28v-0.7h-0.7L230.1,28z M77.5,153c0,0,0-0.4-0.3-0.7c-0.3,0-0.7,0.7-1,1.1
	c0,0,0,0.4,0.3,0.7C76.8,154,77.1,153.3,77.5,153z M396.5,183.9c0,0,0-0.4-0.3-0.7c0,0-0.3,0.4-0.3,0.7c0,0,0,0.4,0.3,0.7
	c0,0,0.3-0.4,0.7-0.7H396.5z M380.9,287.3v-0.7c0,0.4-0.3,0.7-0.7,1.4c0,0,0.7,0,0.7-0.4V287.3z M206.2,409h0.7l-0.7-0.7V409z
	 M143.6,36.2c0,0-0.3,0-0.7,0.4c0,0,0,0.4,0,0.7c0,0,0.7-0.7,1-0.7c0,0-0.3,0-0.7,0L143.6,36.2z M124.5,375.3h0.7l-0.7-0.7V375.3z
	 M393.4,175.2c0,0,0-0.7-0.3-0.7c0,0-0.3,0-0.7,0v1.1C392.3,175.6,393.4,175.6,393.4,175.2z"/>
<path d="M35.6,343.3c3.5,11.5,6.2,22.3,9.7,34.5c-2.1-1.4-3.5-2.2-4.2-2.9c-2.1-2.9-3.8-6.1-5.5-9.3c-0.7-1.4-1.4-3.6-1.4-5
	c0-5.4,0.7-10.8,1-17.2H35.6z"/>
<path d="M266.7,408c0,0,2.1-2.9,3.5-3.6c9.7-5.7,19.4-11.1,29.1-16.5c0,3.9-2.4,6.5-5.5,8.3c-9,4-18,7.9-26.6,11.9H266.7z"/>
<path d="M266.7,407.6c-4.5,6.1-11.4,6.8-17.6,9.3c-3.5,1.4-6.9,1.4-10.7,0.7c0-1.4,0-2.5,0-3.6c6.6,0,12.8-1.1,19-4.7
	c2.8-1.4,6.2-1.4,9.7-1.8H266.7z"/>
<path d="M1,267.5c0,0,2.1,2.2,2.4,3.6c2.4,7.9,4.2,16.2,8.3,23.3c0,0.7,0,2.5-0.7,2.9c-1,0-2.8,0.4-3.5,0c-1-0.7-1.7-2.2-2.1-3.6
	c-1.4-8.6-2.8-17.2-4.2-25.9L1,267.5z"/>
<path d="M80.2,405.5l-1,1.4c-4.5-2.5-8.7-6.1-12.8-10.4C71,397,75.6,399.9,80.2,405.5z"/>
<path d="M420,196.1c0.7,4.3,1.7,9,2.4,13.6C419.7,205.8,417.6,201.5,420,196.1z"/>
<path d="M92.3,398.6c-3.8-1.1-8-1.8-11.8-2.9c-1.4-0.4-2.1-2.5-2.1-4.7c2.1,1.1,4.5,2.5,6.6,3.6c2.4,1.4,4.8,2.9,6.9,4.3L92.3,398.6
	z"/>
<path d="M24.9,336.5c-0.3-2.9-1-5.4-1.4-8.3c0.3,0,0.7,0,1,0c0.7,2.9,1.4,5.4,2.1,8.3C25.9,336.5,25.6,336.5,24.9,336.5z"/>
<path d="M29,149.7c-2.3,2.4-4.6,3-6.9,1.8c0.3-2.2,2.1-1.1,3.1-1.4c1.4,0,2.8,0,3.8,0V149.7z"/>
<path d="M248.7,10c2.1-2.2,4.5-2.2,7.6-0.4c-3.1,1.8-5.5,0-8,0L248.7,10z"/>
<path d="M21.4,164.1c0,0,0.3-2.5,1-3.6c0.3-0.7,1.7-1.8,2.1-1.4c1.7,0.7,1,2.2,0,3.6c-0.3,0.7-1,1.8-1.7,2.5l-1.7-0.7L21.4,164.1z"
	/>
<path d="M87.8,383.5l9.7,2.2c0,0,0,1.1,0,1.4c-1.4,0-2.8,0.7-3.8,0c-2.1-1.1-3.8-2.5-5.5-3.9L87.8,383.5z"/>
<path d="M73.7,368.1c4.2-0.7,7.6,0.7,10,4.7C79.9,372.1,76.4,370.6,73.7,368.1z"/>
<path d="M420.7,152.3c0,0,2.4,3.2,4.8,6.5c-2.5-1.9-4-4.2-4.5-6.8L420.7,152.3z"/>
<path d="M66,344c0,0,1.4,1.4,1.7,2.5c0,0-0.3,1.1-0.7,1.4c-0.7-0.7-1.4-1.4-2.1-2.2C65,345.8,65.4,344.8,66,344z"/>
<path d="M416.2,141.8c0,0,0.3-1.1,0.7-1.4c0.3,0,1,0.7,1.4,1.1c0,0.4,0,1.1-0.7,1.4C417.2,142.9,416.5,142.2,416.2,141.8z"/>
<path d="M97.9,408.3c0,0-0.7,0.7-1,1.1c0,0-0.7,0-0.7-0.4c0-0.4,0-1.1,0.3-1.4C96.8,407.6,97.5,408.3,97.9,408.3z"/>
<path d="M248.7,9.7c0,0-3.1,1.4-4.5,2.2c1-2.9,2.8-1.8,4.5-1.8V9.7z"/>
<path d="M306.9,45.2c0,0,2.4,0.4,3.8,0.7v0.7c-1-0.7-2.4-1.1-3.5-1.8L306.9,45.2z"/>
<path d="M6.9,381c-1.7-0.7-2.4-2.2-0.3-4.7C6.5,378.5,6.5,379.6,6.9,381z"/>
<path d="M47.7,383.2l0.7,0.7l-0.7,0.4V383.2z"/>
<path d="M279.5,13.3l-0.3-0.4h0.7L279.5,13.3z"/>
<path d="M105.5,48.1c0,0,0,0.7,0,1.4c-1.7,0-3.5,0-5.2,0C101.7,47.7,103.4,47.7,105.5,48.1z"/>
<path d="M40.1,128.5c0,0,0,0.7,0,1.1c0,0-0.7,0.4-0.7,0c0,0,0-0.7-0.3-0.7h0.7L40.1,128.5z"/>
<path d="M29.4,149.7c0,0,0.7-2.2,1-2.9c0,0,1,0,1.7,0c0,0,0,0.7-0.3,1.1C31.1,148.7,30.1,149,29.4,149.7z"/>
<path d="M275,410.1l1-1.1c0,0,0,0.4,0,0.7h-0.7L275,410.1z"/>
<path d="M16.2,129.6h-0.3l0.3-0.7V129.6z"/>
<path d="M69.9,72.9v0.7l-0.7-0.4L69.9,72.9z"/>
<path d="M85.8,62.8c0,0-0.7,1.1-1,1.4c0,0-0.3,0-0.7,0c0.7-0.4,1-0.7,1.7-1.1V62.8z"/>
<path d="M86.1,62.8c0,0,2.4-1.8,3.8-2.5V61C89.9,61,87.5,62.1,86.1,62.8z"/>
<path d="M22.5,400.8l-0.3,0.7l-0.3-0.7H22.5z"/>
<path d="M307.2,391.1h0.7l-0.7,0.4V391.1z"/>
<path d="M321,383.2l-0.7,1.4c0,0,0.7-1.1,1-1.4H321z"/>
<path d="M338,373.8c0,0-0.3,0-0.7-0.4c0,0,0.3-0.4,0.7-0.4c0,0,0.3,0,0.7,0.4C338.7,373.5,338.3,373.5,338,373.8z"/>
<path d="M9.6,303.1l0.3-0.7l0.3,0.7H9.6z"/>
<path d="M275,410.1c0,0-1,0.4-1.4,0.7c0,0,0-0.4,0.7-0.7c0,0,0.7,0,1,0H275z"/>
<path d="M420.7,152.3c0,0,0-1.1-0.3-1.4c0,0,0,0.4,0,0.7c0,0,0,0.7,0,1.1L420.7,152.3z"/>
<path d="M110.7,410.8l0.7,0.4l-0.7,0.4V410.8z"/>
<path d="M50.8,139.7l0.7-0.4v0.7L50.8,139.7z"/>
<path d="M12.1,138.2l0.3,0.7l-0.7-0.4L12.1,138.2z"/>
<path d="M129.4,119.9c0,0-0.7,0.7-1.4,1.1c0,0,0-0.4-0.3-0.7c0.3,0,0.7-0.7,1.4-0.7c0,0,0,0,0.3,0.7V119.9z"/>
<path d="M261.9,5.4c-3.9,1-7.7,0.5-11.4-1.4c0,0-0.7,1.8-1,2.9c0,0.7,0,1.4-0.3,2.5c-4.5,1.8-9,3.6-13.5,5
	c-3.8-1.1-7.6-1.8-13.1-3.2c2.4,2.9,3.1,5,4.2,5c3.1,0,6.2-1.1,9.3-1.4c2.1,0.7,3.8,1.4,5.9,1.8c4.8,0.4,9.7,0.4,14.5,0.7
	c1,0,2.4,0.7,3.1,0c6.6-5.7,12.5-1.1,19-0.7c0.7,0,1.4,0,2.1,0c2.8,1.1,5.5,1.8,5.2,6.5c0,2.9,2.8,5.7,4.8,8.6
	c0.7,1.1,2.4,1.1,3.5,1.8c1.4-5,2.4-6.1,5.2-5c5.2,1.4,10.4,3.6,15.6,5.4c0.7,0,1.7,0.4,1.7,0.7c2.4,5.7,8.6,7.5,11.8,12.2
	c1,1.4,1.7,2.9,2.1,4.7c0.7,2.5,0.7,5,1,7.2c2.4,0.7,4.2,1.4,6.2,1.8c0.3-0.4,1-0.7,1-1.4c0.7-2.5,1.4-4.7,2.1-7.2
	c0-0.7,1.7-0.7,2.8-1.1c1.7,2.5,4.2,5,3.5,8.6c-4.2,4.3-4.2,9.5,0,15.4c0,0,1-2.9,1.4-4c0-0.7,0.7-1.8,1.7-4.3
	c1.7,9.7,1,18.3,6.9,24.8c-2.1-1.4-3.8-2.9-5.9-4.3c-1.7,1.1-0.7,2.5,0,3.6c6.2,8.3,13.1,16.2,18.7,24.4
	c8.3,12.2,16.6,24.8,23.9,38.1c4.8,8.6,7.6,18,11.1,27.3c2.4,6.8,5.2,13.6,6.9,20.8c2.8,11.9,5.2,23.7,7.3,35.6
	c0.7,3.2-0.3,7.2-0.7,10.8c-0.7-2.2-2.4-4.3-2.4-6.8c-0.7-15.4-5.2-29.4-10-43.5c-3.8-11.9-8.3-23.3-12.8-34.8
	c-0.3-1.4-1-2.9-2.1-3.6c-3.5-2.2-4.8-5.4-6.6-9c-0.7-1.8-2.8-4-4.2-4c-4.2,0-4.8-2.2-6.2-5c-3.8-8.6-8.3-16.9-16.3-22.6
	c-2.8-1.8-3.8-4.7-5.5-7.2c-3.5-5.7-9-9.3-15.2-10.8c0-1.4,0.3-2.9,0-4.3c0-2.9-1.4-3.6-4.2-2.2c0,2.9,0,5.7,3.8,6.1
	c0,3.6,1.7,6.1,3.8,8.6c9.3,11.1,17.6,23,25.6,35.6c10,15.8,19,32.3,24.9,51c2.8,8.6,6.9,16.9,8.6,26.2c1.7,7.2,3.5,14.4,5.2,21.9
	c-2.1,8.6,1.7,17.2-1.4,26.6c-3.1,9.3-5.5,19.4-6.2,29.4c0,4.3-1.7,8.6-3.8,12.6c-3.8,6.8-5.9,14.4-8.3,21.5c-1,2.9-1.7,5.4-4.8,6.8
	c-1.4,0.7-1.7,2.9-2.4,4.3c-2.1,4-3.5,8.3-6.2,11.5c-4.2,5-5.9,11.9-11.1,16.5c-4.8,4.7-8,6.5-8.3,4.7c-1-3.6,1.7-6.1,3.8-8.6
	c4.5-5.4,9.3-10.4,12.5-16.5c4.2-7.9,9-15.8,8.6-25.5c0-3.6,2.4-7.5,4.2-11.1c4.2-9.3,5.2-19,2.4-28.7c0-0.7-0.7-1.1-1.7-2.2
	c-1,1.1-2.4,1.8-2.4,2.9c-1,7.2-5.2,13.3-6.6,20.5c0,1.1,0,2.5-1,3.2c-6.9,6.1-7.3,14.7-10.7,22.3c-1,2.5-2.1,5.4-3.5,9.7
	c4.2-2.9,6.6-4.3,10.4-6.8c-0.7,2.2-0.7,3.2-1.4,4c-3.5,4.3-7.6,7.9-10.7,12.6c-3.5,5.4-6.9,10.4-12.5,13.6
	c-1.4,0.7-3.1,2.2-3.8,3.6c-2.8,5.7-6.9,10.1-12.1,14c-2.4,1.8-2.8,5-1,6.8c1.4,1.8,3.8,2.2,5.5,1.1c3.5-2.2,6.6-4.3,10-6.8
	c1.4-1.1,3.1-2.2,4.5-2.9c0.3,0,1.4,0,1.7,0.4c0.3,0.4,0.7,1.4,0.7,1.8c-1,1.8-1.7,4.3-3.1,5.4c-3.5,3.2-6.6,6.5-11.1,8.6
	c-2.4,1.1-4.8,2.9-7.3,4.7c-0.7-0.7-1.4-1.8-2.4-2.9c-0.7,0-1.4-0.4-2.1,0c-5.9,1.8-11.4,3.6-17.3,5.4c-0.7,0-1.7,1.4-2.1,2.5
	c0,1.8,1,2.2,2.4,2.5c0.7,0,1,0.7,2.1,1.1c-3.8,3.2-9.7,2.5-12.5,7.2c-0.3,0.7-4.2-0.7-4.8,0c-2.8,4.3-6.6,2.9-10,3.2
	c-3.5,0.4-6.2,3.2-9.7,4c-3.1,0.7-6.6-1.1-9.3,0c-3.5,1.1-6.2,0.7-9.3,0.4c-9-0.7-18-1.4-27.7-2.2c-0.7,2.9-1.4,5-2.1,7.9
	c-1.7,0-3.5,0-4.8,0c-2.8-0.7-5.5-1.1-8-2.2c-3.1-1.4-5.2,0.7-7.3,2.5c-4.8-0.4-8.6-1.8-11.8-5.4c-3.5,1.8-0.7,4.3-1.7,6.1
	c-0.7,0-1.4,0.7-2.1,0.4c-10.7-4.7-21.8-7.9-33.2-10.4c-2.4-0.4-4.8-1.4-6.6-2.5c-5.2-4-11.1-6.8-17-9.7
	c-11.1-5.7-20.8-12.9-29.1-22.6c0,0,0-0.7,0-1.1c0,0,0-0.4-0.3-0.7l0.7,1.4c-4.5-1.4-7.6-4.7-9-9.3c-0.7-2.2-2.1-4.3-3.5-6.1
	c-5.5-6.8-11.8-13.6-17.3-20.8c-4.2-5-7.6-10.8-9-17.6c-0.3-2.2-2.1-4.3-4.2-7.5c6.9,6.5,12.8,12.2,19,18c0.3,0,0.7-0.7,1-1.1
	c-2.1-3.2-4.5-6.5-6.2-9.7c-2.1-3.6-4.2-7.2-6.2-10.8c-1.4-2.5-2.8-4.7-4.5-7.2c-1.4-2.2-2.4-4.7-4.2-5.7c-3.8-2.5-4.2-6.5-5.9-10.4
	c-1.7-4,1.4-5,2.1-7.9c-1.4-2.5-5.2,0.7-6.6-2.5c-1-2.2-3.5-3.2-4.8-4c-0.7-5.4-1.4-10.1-2.1-15.1c1.7-1.4,3.1-0.7,4.5,0.7
	c1.4,1.4,2.4,3.2,3.8,5c0,2.2-1.4,4.7,1,6.8c1.7-3.2,0-5-1.4-6.8c0-6.1,0-12.2,0.3-18c0-2.9,1-6.1,0-8.6c-3.5-11.5-1-23.3,1-34.8
	c0.7-3.6,0-6.1-0.7-9.7c1.4-0.7,3.1-1.4,4.8-2.2c0-2.5-1-5.7,0-7.2c8-9.7,6.2-21.9,11.4-32.3c1.4-2.9,2.4-5.7,6.2-6.8
	c2.8-0.7,2.4-4,2.8-6.5c0,0,2.4-2.5,3.8-4c2.1-2.2,3.1-4.7,2.1-7.9c0-0.7-0.7-1.4-0.7-2.2c0-2.9,1-5,3.5-6.5c1.7-1.1,3.1,0,4.8,1.1
	c0.3,0.4,1.4,0.4,2.8,0.7c0.3-2.2,0.7-4.3,1.7-5.7c1-1.8,2.8-3.2,4.5-4.7c2.4-2.5,5.2-5,5.5-9.7c-3.1,2.2-5.5,3.6-8.3,5.7
	c0-6.1,0-11.1,0-16.2c3.1-4.3,6.9-6.5,12.5-6.1c2.4,0,5.2-1.4,8.3-2.2c-1-2.2-1.7-3.6-2.4-5.4c3.5-3.6,9-4.3,13.1-6.8
	c-3.9-0.7-11.4,1.3-22.5,6.1c0,0-1.7-3.2-2.8-5.4c-2.8,1.1-5.5,2.2-8.7,3.6c0-1.4-0.7-2.2-0.7-2.5c0.3-1.1,1-2.2,1.7-2.5
	c8.3-6.1,16.6-12.2,24.9-18c2.8-1.8,6.6-2.5,9.7-4.3c3.8-2.5,7.3-5.4,11.8-8.6c-2.1-2.2-4.2-4.3-6.2-6.8c1.7-1.1,3.1-2.2,4.8-3.6
	c4.2,0,8,4,12.8,1.4c2.4-1.1,5.5-0.7,9-1.1c3.8-5,8.6-9.7,15.9-11.1c0.7,0.7,1.7,1.4,2.8,2.2c2.1,1.4,3.1,0,4.2-1.8
	c0.7,0,1.7,0.7,2.4,1.1c0,0,0.7-1.1,0.7-1.4c0,0-0.7-0.7-0.7-0.4c-1,0.4-1.7,1.1-2.8,1.4c0-1.4,0-3.2,0.7-4c2.1-1.8,4.8-2.9,8-4.3
	c-1.7-1.1-3.5-2.5-3.8-2.2c-3.5,3.6-7.6,2.2-12.1,4c0.7-1.8,0.7-2.9,1.4-3.2c2.8-1.8,5.5-3.6,8.6-5.7c4.5,2.2,9,1.1,13.8-1.1
	c4.8-2.2,10-2.5,15.2-4c1.4,0,2.8-1.1,3.8-1.8c0,0,3.1-0.7,4.8-1.4c3.5-0.7,7.3-1.1,10.4-2.5c5.2-2.2,10.4,0.7,15.6-1.8
	c0.3,0,1.4,0,1.7,0.7c2.8,2.9,5.5,1.8,8.7,0.7c2.4-0.7,5.2-2.5,8.3,0c-2.1,1.8-4.2,3.6-6.2,5.4L261.9,5.4z M273.6,306
	c0,0,0-1.1,0.3-1.8c0,0.7,0,1.1,0,1.8c0,0.7,0,1.1-0.3,1.8C273.6,307,273.6,306.7,273.6,306z M389.2,207.2c0,0-1-3.2-1.4-5l-2.4-6.5
	c0,0,0.7-3.6-2.1-4.7c0.7,1.8,1.4,3.2,2.1,4.7c0.7,2.2,1.7,4.3,2.4,6.5C388.2,204,388.9,205.4,389.2,207.2c-0.7,0.4-1.4,1.1-2.1,1.4
	c-1.7-1.8-2.8-4.7-6.6-2.5c0.7,2.2,1.7,4.3,2.1,6.1c2.4,8.3,5.2,16.5,7.3,25.1c1,4.3,2.4,9,0,13.6c-0.7-1.1-1.7-2.2-2.4-3.6
	c-0.3-1.4-0.7-3.2-1-4.7c0,0,0-0.7,0-1.1c0,0,0-0.4,0-0.7c0,0.7,0,1.1,0,1.8c0.3,1.4,0.7,3.2,1.4,4.7c0.7,1.1,1.4,2.2,2.1,3.2
	c0.7,4.3,1,8.3,1.7,12.6c0,0-1,0.7-1.4,1.1c-1.7-2.2,0-6.5-3.8-7.5c-2.1,11.5-2.1,11.5,3.5,19.8c2.8-0.4,4.5-2.5,4.8-5
	c0.3-8.3,0.3-16.5,0.7-24.8c0-5.4,0-10.8-0.3-16.2c0-1.4,0-3.2-0.7-4c-2.4-2.9-1.7-6.5-1.7-10.1c0-1.4-1.4-2.9-2.1-4.7
	c0-1.4-0.3-3.2-0.7-4.7H389.2z M145.6,402.2c0,0-1-1.1-1.7-1.4c-0.3,0-1,0-1.4,0c0.3,0.4,0.7,1.4,1,1.4
	C144.2,402.2,144.9,402.2,145.6,402.2c0.3,0,0.7,0.4,1,0.7c0,0-0.7,0-1-0.4V402.2z M376.8,173.8c-0.7-2.2-1.7-3.9-2.4-6.1
	c0,0-0.7,0-1,0.4c1,1.8,2.4,3.6,3.5,5.4c-1.4,2.2-0.3,4.3,0.7,6.1c0.3,0.7,1.7,0.7,2.4,1.1c0-0.7,0.7-1.4,0.3-1.8
	C379.2,177,377.8,175.6,376.8,173.8z M329.4,216.9c0,0,0,2.2,0.3,3.2c0.3,0,0.7,0,1-0.4c-0.7-0.7-1.4-1.8-1.7-2.5
	c1.4-2.5,0.3-5-0.7-6.8c-0.7-1.4-2.1-1.8-3.5,0.4c1.4,2.2,2.8,4.3,4.5,6.5V216.9z M110.3,386.1c0.7,2.9,2.1,5,5.5,4l0.7-0.7
	c-0.7-3.6-3.5-3.6-6.2-2.9c-0.3-0.7-0.7-1.1-1-1.8c-0.3,0-1,0-1.7,0c0,0.7,0.3,1.4,1,1.4c0.3,0,1.4,0,2.1,0H110.3z M217.6,362.4
	c0,0,4.5,0.7,5.2-2.9c-2.1-2.5-5.2-3.6-8.3-2.5c-1.7,0.4-1.7,2.2-0.7,3.6l-5.5,1.4c0.7-3.6,0.7-6.8-1.4-9.7c2.4,0,4.8,0,7.3,0
	c2.4,0,4.5,2.2,6.9,0c-0.3-3.6-3.5-4.3-5.9-4.7c-2.1,0-4.2,0-6.2,0c-2.1,0-3.8-0.7-6.2-1.4c0,1.8,0,2.5,0,3.6
	c-2.1-0.4-4.2-1.1-6.2-1.4c-9.7-2.2-19.4-5-29.8-0.7c-4.2,1.8-9,1.1-12.8-1.8c-1.7-1.4-4.2-2.9-7.3,0c1.7,4.3,4.8,7.2,8.3,10.1
	c4.8,3.6,10,6.1,14.2,10.1c4.2,4,9,5,14.2,4.3c4.5-0.7,9-2.2,14.2-3.6c-1.4-3.2-2.8-5.4-4.2-8.3c5.9-1.8,10,1.4,14.5,3.2
	c1,4.3,4.8,4.3,8.3,4.3c2.4,0,2.1-2.2,1-3.9L217.6,362.4z M306.5,233.8c3.1-4.3-1-9,1-13.6c0.3-0.7,0-2.2-0.3-2.9
	c-1-2.9-1.7-6.1-4.8-7.5c-1.7-0.7-3.1-2.5-5.9-4.3c2.8,9.3,5.2,17.2,7.6,25.1C304.4,231.6,305.8,232.7,306.5,233.8
	c0,1.4-1,2.9-0.7,4.3c0.7,7.5,2.1,14.7,2.1,22.3c0,10.1,2.8,19.8,0,29.8c-1.4,4.7-2.4,9-3.5,13.6c-0.7,2.5-1,4.7-1.4,7.2
	c7.3,0,11.8-1.8,14.2-7.9c3.1-7.2,5.5-14.4,7.6-21.5c1-2.9,0-6.5,0.3-9.3c2.1-11.5-3.1-20.8-6.9-30.2c0,0-0.7,0-1-0.4
	c-3.1,1.1,0,5.7-4.2,6.8c-0.7-2.9-1.7-5.4-2.1-8.3c-0.3-3.2-2.8-4.7-4.8-6.5H306.5z M166.4,142.6c-2.4-1.8-4.8-2.2-8-1.4
	c-3.5,0.7-6.9,1.4-10.4,0c-5.2-2.9-9.7,0-13.5,2.9c-3.1,2.5-5.9,5.4-8.3,8.6c-2.1,2.9-4.5,6.1-5.2,9.7c-1.4,5.4-3.1,10.4-6.6,14.7
	c-1,1.1-0.7,2.9,1.7,3.2c3.1-3.6,6.2-7.5,10.7-12.9c-2.8,8.3-4.5,14.7-7.3,20.8c-3.1,6.8-2.4,12.9,1.7,18c2.4,3.2,3.5,6.8,4.8,10.4
	c3.8,9,8.6,17.6,18,21.9c0.3,0,1,0,1.4,0c-0.7,0-1,0-1.7,0c-2.1-1.8-2.4-4-1.7-6.8c1.4-5.4,2.8-10.4,3.5-15.8c0.3-3.2,1-6.1,2.8-9.3
	c3.8-7.2,7.6-14.4,10.4-21.5c3.1-8.3,5.2-16.5,7.6-24.8c0-0.7-0.3-1.4-0.7-2.2c-2.4,1.1-4.5,2.2-7.6,3.6c1.7-6.1,2.1-6.5,3.5-7.2
	c1.4-0.4,2.8-0.7,4.2-0.7c4.2-0.7,6.2-4,4.5-7.5c-0.7-1.8-1.7-4-4.5-3.2L166.4,142.6z M300.6,245.6c-2.1,6.1-1.7,11.5-2.1,16.5
	c-0.3,5.4-0.7,10.8-1.7,16.2c-2.4,10.1-5.5,20.1-8,30.5c0,1.1,0.3,2.5,1,3.6c0,0,2.1,0,2.8-0.7c2.8-3.6,6.9-7.2,8.3-11.5
	c5.9-17.6,5.2-35.6,1.7-53.2c0,0-0.3-0.4-1.7-1.4H300.6z M227.3,373.8c7.3,0.7,12.5,1.1,17.3,2.2c4.8,0.7,7.3-1.8,8-5
	c4.5,0,9,1.1,11.8-0.4c4.2-2.5,8-1.4,12.1-1.8c1.7,0,3.8,0,4.2-2.9c-6.6-5-13.8-3.9-21.1,0c-5.9-0.7-11.1-4.3-17.3-1.8
	c-1,0.4-2.8-0.4-3.8-1.1c-1.4-0.7-2.8-1.8-4.5-2.5c-0.7,0-1.7,0.4-2.8,0.7c1,2.9,5.5,4,3.5,8.3c-2.1,1.1-4.2,2.2-8,4.3H227.3z
	 M118.3,147.6c2.1-2.9,3.8-5,6.9-3.2c0,0,1.4-1.4,1.4-2.2c0-1.4-0.3-2.5-0.7-4.3c2.1-0.4,4.5,0,5.2-1.4c3.5-4.3,7.3-3.6,11.8-3.6
	c5.2,0,10.4,0.7,14.9-3.2c-0.3-0.7-0.7-1.4-1-1.8c-4.5-2.2-8.6-2.9-14.2-1.8c-5.9,1.4-11.8,1.1-17.3,4.3c-9.3,5-15.2,13.3-20.8,21.9
	c-0.3,0.7,0,1.8,0,2.9c5.9-0.4,5.9-5.7,7.6-9.7c2.1,0.7,3.8,1.1,5.9,1.8L118.3,147.6z M135.9,328.2c-6.9-0.7-8.3-8.3-14.9-11.1
	c4.8,9.3,9.7,17.6,19.7,21.2c0-2.2,0-3.2,0-5.7c3.5,1.4,6.6,2.2,8.7,4c3.1,3.2,7.3,4,11.1,4.7c1,0,2.4-0.7,3.8-1.1
	c-0.7-3.2-3.5-2.5-4.8-4c-1.7-1.8-2.4-4.3-4.5-5.7c-5.9-4.3-12.1-8.3-20.1-7.5c0.3,2.2,0.7,3.2,1,4.7V328.2z M266,405.5
	c0,0,2.4,1.1,3.5,1.1c6.6-0.7,13.1-1.1,19.7-2.2c2.8-0.4,5.5-1.8,8-2.9c0.7,0,1.4-1.8,1.4-2.5c0-0.7-1-2.2-1.7-2.5
	c-2.1-0.4-4.5-1.1-6.2,0c-3.5,1.8-6.6,1.8-10,2.2c-4.5,0.7-9,1.4-13.5,2.5c-0.7,0-1.7,1.4-2.1,2.2c0,0.4,0,1.4,0.3,2.5L266,405.5z
	 M191.3,23.3c0,0,0.7,0.7,1,0.7c5.5-1.1,11.1-2.2,16.6-3.6c2.4-0.7,4.5-2.2,6.6-4c0.7-0.4,1-2.2,0.7-2.9c0-0.7-1.7-1.1-2.4-0.7
	c-6.6,2.5-13.5,5-20.1,7.5c-0.7,0-1.4,1.4-1.7,2.2L191.3,23.3z M322.1,235.2c-0.3-10.4-4.2-20.5-10.4-28c0,1.8-0.3,3.6,0,4.7
	c3.8,7.2,4.8,16.2,10.4,23.7V235.2z M237,278.3c7.3,0,9.3-0.7,10.4-4.3c0.7-2.9,1.4-6.1-3.1-8.6C242.9,270.4,237.3,272.9,237,278.3z
	 M302.7,341.9c5.2-0.7,8.3-1.1,11.1-1.8c1,0,1.4-1.8,2.8-4c-5.5-0.7-9.7-1.4-14.2,5.7H302.7z M150.1,51c-3.5,1.4-6.6,2.2-7.6,6.1
	c7.3,1.1,9,0.7,10-2.2C151.9,53.8,150.8,52.4,150.1,51z M359.5,297.7c-1,4.3-4.5,7.9-3.5,13.3C360.5,306.7,360.5,302.4,359.5,297.7z
	 M312.7,390.4c0,0-0.3-0.7-0.7-0.7c-2.4-1.1-5.9,1.4-6.2,4c0,0,0,0.7,0,1.1c1.7,1.1,6.2-1.1,6.9-3.2
	C312.7,391.4,312.7,390.7,312.7,390.4z M257,356.6c-4.2-3.2-8-3.6-11.8-3.2C248.7,354.8,250.8,359.1,257,356.6z M307.2,35.2
	c0.7,5.7,2.8,6.8,9,7.2C313.1,39.8,311,38,307.2,35.2z M290.6,177.4c-0.7-4.3-2.4-7.3-5.2-9C286.1,171.8,287.8,174.8,290.6,177.4z
	 M328,357.3l-0.7-0.7c-1.4,0.7-3.1,1.1-4.5,1.8c0,0,0,1.4,0,1.8c1.7,1.4,3.1,0,4.2-1.1C327.3,358.8,327.6,358,328,357.3z
	 M178.2,416.2v-1.8c-1.4-0.7-2.8-1.4-4.2-2.2c0,0-0.7,0-1,0c0,0.7-0.3,1.4,0,1.8c1,1.1,2.4,1.8,3.8,2.5c0,0,1-0.4,1.7-0.7
	L178.2,416.2z M117.3,268.3c0.7-3.2,0.3-6.5-3.8-5.4C114.8,265,116.2,266.5,117.3,268.3z M327.3,89.8c0,0,0.7,0.7,1,0.7
	c0.7,0,1.4,0,1.7-0.7c0.7-1.4,0-3.6-1.7-3.6c-0.3,0-1.4,0.7-1.4,1.1C326.9,88.3,326.9,89,327.3,89.8z M213.4,27.6v-2.2
	c-0.7,0-1.7,0-2.8,0c0,0.7,0,1.8,0,1.8c0.7,0,1.7,0,2.8,0V27.6z M367.1,155.5h-0.7c0,0,1.4,2.5,2.4,3.2h0.7
	C369.5,158.7,368.1,156.2,367.1,155.5z M315.2,368.5c0,0,0.7-1.8,1-2.2c-1,0-1.7-0.4-2.4,0c0,0-0.7,1.1-0.7,1.8
	c0.7,0,1.7,0.7,2.4,0.7L315.2,368.5z M344.2,82.6l0.7-0.7c-0.3-0.7-1-1.4-1.4-2.5l-1,1.1C343.2,81.1,343.5,81.9,344.2,82.6z
	 M318.3,325c0,0,1,0,1.7,0v-0.7c-0.7,0-1,0-1.7,0V325z M324.9,390.7c0,0-1.7,0.4-2.8,0.7v1.1c1,0,1.7,0.4,2.8,0.4
	C324.9,392.2,324.9,391.8,324.9,390.7z M97.2,243.1c0,0,0-1.1,0-1.8h-0.7c0,0.7,0,1.1,0,1.8H97.2z M270.2,356.6c0,0-1,0-1.7,0v0.7
	c0.7,0,1,0,1.7,0V356.6z M278.5,160.5l-1.4-1.1c0,0-0.3,1.1,0,1.4c0,0.4,1,0.7,1.4,1.1C278.5,161.6,278.5,160.9,278.5,160.5z
	 M79.5,352.7c0,0,1,0,1.7-0.4v-0.7c-0.3,0-1,0-1.7,0c0,0.4,0,1.1,0,1.8V352.7z M322.8,85.8c0,0,0-1.8,0-2.9c0,0-1,0-1.4,0
	c0,0.7-0.3,1.4,0,1.8c0,0.4,0.7,0.7,1.7,1.1H322.8z M128.3,397.6c0,0,0.7,0,1,0v-1.1c-0.3,0-1,0-1.4,0
	C128,396.5,128,397.2,128.3,397.6z M88.5,349.8c0,0-0.3-0.4-0.7-0.7c0,0,0,0.7,0,1.1C87.8,350.1,88.2,350.1,88.5,349.8z
	 M124.5,399.3c0,0,0.3-0.4,0.3-0.7c0,0-0.3-0.7-0.7-0.7c0,0-0.3,0.7-0.7,1.1c0,0,0.7,0,0.7,0.4H124.5z M320.4,48.8
	c0,0,0.7,0,0.7-0.4c0,0,0-0.7,0-1.1c-0.3,0-0.7,0.4-1,0.7c0,0,0.3,0.4,0.7,0.7H320.4z M338.3,346.2c0,0,0.3-1.1,0.7-1.4
	c0,0-0.7-0.4-0.7,0c-0.3,0.4-0.7,0.7-1,1.4c0.3,0,0.7,0.4,1.4,0.7L338.3,346.2z M283.3,310.3c0,0,0-0.7,0.3-1.1c-0.3,0-1,0-1.4,0
	v1.1C282.3,310.3,283,310.3,283.3,310.3z M228.3,351.6c0,0,0,1.1,0,1.8h0.7c0-0.7,0-1.1,0-1.8c0,0-0.7,0-1,0H228.3z M247.4,411.6h1
	v-0.7l-0.7,0.7H247.4z M372.3,233.4v-0.7l-0.7,0.4h0.7V233.4z M401.3,260c0,0,0.3,0,0.7,0c0-0.4-0.3-0.7-0.7-1.1v0.7V260z
	 M383.7,226.6v-0.7c0,0-0.3,0-0.7,0v0.7C383,226.6,383.3,226.6,383.7,226.6z M283.7,54.9c0,0-0.3,0-0.7,0v0.7c0.3,0,0.7,0,1.4,0
	c0,0,0-0.4,0-0.7H283.7z M183.7,416.2H183v0.4h0.3L183.7,416.2z M213.8,425.2c0,0,0.3,0,0.7,0v-0.7h-0.7
	C213.8,424.5,213.8,424.8,213.8,425.2z M220,426.6c0,0,0-0.7-0.3-0.7c0,0-0.3,0-0.7,0c0,0,0,0.7,0.3,0.7
	C219.3,426.6,219.7,426.6,220,426.6z M210.7,116.7H210c0,0,0.3,0.4,0.7,0.7C210.7,117.4,210.7,117.1,210.7,116.7z"/>
<path d="M16.2,216.9c0.7-2.2,1.4-4,2.1-6.1c1.4-7.5,2.8-14.7,4.2-22.3c0.3,0,0.7,0,1.4,0c0,2.5,0.3,5,0.3,7.5
	c-0.3,8.3-1,16.5-1.4,24.8c0,1.4,1,2.5,1,3.9c0.3,2.5,1.4,5.4,0.3,7.2c-3.1,6.1-0.7,11.5,0.7,16.9c2.8,10.8,5.9,21.2,9.7,31.2
	c5.2,12.9,9.7,26.6,20.1,36.6c0.3,0.4,0.3,1.1,1,3.2c-3.5-2.5-5.9-4.3-8.7-5.7c0-0.7,0-1.1-0.3-1.8c0,0.7,0.3,1.1,0.7,1.8
	c-1,0.7-1.7,1.1-3.1,2.2c-2.4-2.5-3.5-6.8-7.3-7.9l-0.7-0.7c1.7-6.5-3.8-8.3-6.6-11.9c-1-1.4-1.4-3.2-2.1-4.7
	c-4.2-10.8-7.6-21.9-8.6-33.8c0-2.5-2.4-5-3.8-7.2c-1.7-2.9-2.4-6.5,0-9c3.8-4.3,3.1-8.6,1.7-12.9c-0.7-2.2-2.1-3.6-2.4-5.7
	c0-1.4,0.3-3.6,0.7-5h0.3L16.2,216.9z"/>
<path d="M28,167.3c0-7.5,3.8-14.4,7.3-21.2c1.7-3.6,3.8-6.8,5.2-10.8c1.4-4.3,4.5-8.3,9.7-8.6c-5.9,14-12.8,27.3-20.4,40.2h-1
	L28,167.3z"/>
<path d="M50.1,127.1c-3.1-4.3-3.5-4.3-1.4-6.8c5.2-6.8,10.4-13.6,16.6-21.5c1,0,2.8,0,4.8,0c0,1.1,0,2.2,0,2.2
	c-7.3,7.2-13.5,15.1-18,24.1c-0.3,0.7-1.7,1.4-2.4,2.2H50.1z"/>
<path d="M302.4,432.7c11.1-3.2,22.1-6.8,33.2-10.1c0.7,2.2-1,2.5-2.1,2.9c-8.3,4.3-17,7.5-25.9,9.3c-2.4,0.4-4.2-0.4-5.2-2.5V432.7z
	"/>
<path d="M256.7,436.3c6.9-2.2,13.5-2.2,20.8,0.7C270.9,440.6,264.7,440.6,256.7,436.3z"/>
<path d="M302.4,432.4c0,0-1.7,2.9-2.8,3.2c-5.9,1.8-12.1,2.9-18.3,1.8c0,0-0.3-0.4-0.7-1.1c6.9-4,14.5-3.2,21.8-3.6V432.4z"/>
<path d="M168.1,22.6c-8,7.5-15.2,10.8-23.5,13.3C148,30.9,158.8,24.8,168.1,22.6z"/>
<path d="M22.5,188.5c0.7-7.2,1.4-14.7,5.5-21.2h1c0,7.5-1.7,14.7-5.5,21.5c-0.3,0-0.7,0-1.4,0L22.5,188.5z"/>
<path d="M51.9,96.2c1.4-2.6,4.5-5.5,9.3-8.6c0,0,1,1.1,1,1.4C60.5,93.4,58.1,96.6,51.9,96.2z"/>
<path d="M428.7,224.8c-2.1-6.1-4.8-11.9-5.2-18.7c3.1,5.7,4.8,11.9,4.8,18.7H428.7z"/>
<path d="M418.6,247.4c2.8,5.7,2.4,12.2,0,18.3c0-4-0.7-7.9-0.7-12.2c0-2.2,0.7-4.3,1-6.5L418.6,247.4z"/>
<path d="M79.9,90.5c2.4-2.2,4.8-4,7.6-6.5c0.7,1.4,1.4,2.5,2.1,3.6C82.7,92.6,82.3,92.6,79.9,90.5z"/>
<path d="M43.2,108.1c0,0-1-1.4-0.7-1.4c1-2.5,1.7-5.4,5.2-5.7c0,0,0.7,0,0.7,0.7c0.3,4-3.1,4.3-4.8,6.8L43.2,108.1z"/>
<path d="M86.5,70c1.4-2.9,2.4-5.7,6.2-4.7c0,0,0.7,0.4,0.7,0.7c-0.3,4-3.5,3.2-6.6,4H86.5z"/>
<path d="M101,59.6c0,0-2.1,2.5-3.1,3.6c0,0-1.4,0-1.7-0.7c0-0.4-0.3-1.4,0-1.8C97.2,58.9,98.6,58.2,101,59.6z"/>
<path d="M318.6,409.4c0,0-1.4,0-1.7,0c0.3-0.7,0.7-1.4,1-2.2c0,0,1,0.4,1.7,0.7c0,0.7-0.7,1.1-1,1.8V409.4z"/>
<path d="M384.4,364.5c0,0,1-2.5,1.7-3.2c0.7-0.4,1.7-0.4,2.4-0.4c-0.3,0.7-0.7,1.8-1,2.5c-0.7,0.7-1.7,0.7-3.1,1.4V364.5z"/>
<path d="M349.1,413c0,0,2.1-2.2,3.1-3.2c0,0,0.3,0.4,0.7,0.7c-0.7,1.1-1.4,2.5-2.1,3.6C350.1,414.1,349.8,413.4,349.1,413z"/>
<path d="M15.2,195.4c0,2.2,0,3.9,0.3,6.5C13.5,200.4,13.3,198.2,15.2,195.4z"/>
<path d="M42.2,95.5c0,0,1.7-2.2,2.8-3.2c0,0,1,0,1.7,0.4c-0.7,1.1-1.4,2.5-2.1,3.6C44.6,96.2,43.6,96.2,42.2,95.5z"/>
<path d="M80.2,73.2c0,3.6,0.3,5.4,0.7,8.3C77.8,79,77.1,77.6,80.2,73.2z"/>
<path d="M41.1,255.7c0,0,0,1.1,0,1.8c-0.7,0-1-0.4-1.4-0.7c0,0,0-0.7,0-1.1c0.7,0,1,0,1.7,0H41.1z"/>
<path d="M16.2,216.9h-0.3c0,0-1.7-1.4-2.4-2.2c0.3,0,0.7-0.7,1.4-1.1c0.7,1.1,1,2.2,1.7,3.2H16.2z"/>
<path d="M192,8.6c0,0-1.4,0-2.1,0c0-0.7,0-1.1,0.3-1.8c0.7,0,1,0,1.7,0.4c0,0,0,0.7,0,1.1V8.6z"/>
<path d="M396.8,341.9h-0.7c0-0.4,0.3-0.7,0.7-1.1v0.7V341.9z"/>
<path d="M391.6,352.7c0,0,0-0.7,0-1.1h1c0,0,0,1.1-0.3,1.4C392.3,353,392,353,391.6,352.7z"/>
<path d="M103.4,51h-1.7v-1.4c0.7,0,1,0,1.7,0c0,0,0,0.7,0,1.1V51z"/>
<path d="M343.9,418.7c0,0-0.3,0.4-0.7,0.7c0-0.4,0-0.7-0.3-1.4h0.7v0.7H343.9z"/>
<path d="M29.7,118.9c0,0,0-1.1,0.3-1.8h0.7c0,0.7,0,1.1-0.3,1.8c0,0-0.7,0-1-0.4L29.7,118.9z"/>
<path d="M26.3,125h-0.7c0,0,0-0.7,0.3-1.1c0.3,0,0.7,0,1.4,0.4c0,0-0.7,0.4-0.7,0.7H26.3z"/>
<path d="M22.1,130.7v0.7c-0.3,0-1,0-1.4,0c0,0,0-0.7,0.3-0.7h0.7H22.1z"/>
<path d="M403.7,319.3l0.3,0.4l-0.7,0.4L403.7,319.3z"/>
<path d="M171.9,21.5c0,0-1-0.4-1.4-0.7v-0.7c0.3,0,1,0.4,1.4,0.7c0,0,0,0.4-0.3,0.7H171.9z"/>
<path d="M406.5,280.1l-0.3-0.7h0.3V280.1z"/>
<path d="M428.3,224.8c0,0,0.3,0.7,0.7,0.7v-0.7H428.3z"/>
<path d="M261.9,5.4c0,0,1,0,1.7,0c0,0.4,0,1.1,0,1.4l-1.4-1.1L261.9,5.4z"/>
<path d="M420.7,198.6l0.7,0.7l-0.7,0.4V198.6z"/>
<path d="M36.6,111.7c0,0,0,0.4-0.3,0.7c0,0,0-0.7,0-1.1c0,0,0.3,0,0.7,0.4H36.6z"/>
<path d="M75.7,149c0,0-1,0-1.4,0c0,0,0.3,0,0.7,0c0,0,0.3,0,0.7,0.4V149z"/>
<path d="M69.9,94.1c0,0-0.7-0.4-1-0.7c0,0,0-0.4,0.3-0.7C69.2,92.6,69.2,93.4,69.9,94.1z"/>
<path d="M67.8,84h-0.7c0-0.4,0-1.1,0-1.4h0.7c0,0,0,0.7,0,1.1V84z"/>
<path d="M77.1,85.8l-0.3,0.7l-0.3-0.7H77.1z"/>
<path d="M84.4,73.6c0,0-1-0.4-1.4-0.7v-0.7c0.3,0,1,0.4,1.4,0.7V73.6z"/>
<path d="M105.5,56l0.3-0.7l0.3,0.7H105.5z"/>
<path d="M400.6,333.3l-0.7,0.7l-0.3-0.4L400.6,333.3z"/>
<path d="M402.4,325.7l0.7,0.4l-1,0.4L402.4,325.7z"/>
<path d="M132.1,155.8c0,0,3.1-2.2,5.9-4.3C136.6,155.5,134.9,156.2,132.1,155.8z"/>
<path d="M166,142.6c0,0,0.7,1.1,1,1.4c0,0,0,0.7,0,1.1c-0.3,0-1.4-0.4-1.4-0.7c0-0.4,0.3-1.1,0.7-1.8H166z"/>
<path d="M184,361.3l0.7-0.4l0.3,0.7L184,361.3z"/>
<path d="M202.7,350.5c0,0,3.1,1.4,4.5,1.8C205.8,351.6,204.1,350.9,202.7,350.5z"/>
<path d="M387.5,208.3c0,0,1.7,2.2,2.8,3.6C388.5,211.5,386.8,210.8,387.5,208.3z"/>
<path d="M213.4,360.6c0,0,3.1,1.4,4.5,1.8C216.6,361.6,214.8,360.9,213.4,360.6z"/>
</svg>
